<svg xmlns="http://www.w3.org/2000/svg" width="491.132" height="120.579" viewBox="0 0 491.132 120.579">
  <g id="logo" transform="translate(-20.866 -195.71)">
    <g id="组_1" data-name="组 1" transform="translate(1.155 32.572)">
      <path id="路径_1" data-name="路径 1" d="M62.686,112.79H56.624c-.782-.014-4.651-.348-4.651-5.671v1.488l-.412-24.645a6.729,6.729,0,0,1,3.944-4.693l10.712-9.326c1.26-1.008-.252-3.277-.252-3.277-1.511-1.764-3.781-.63-3.781-.63a35.479,35.479,0,0,1-4.789,3.53c-4.231,2.257-5.9-3.242-6.144-4.155l-.664-39.638c0-2.958-.886-5.356-3.844-5.356s-3.844,2.4-3.844,5.356l-.406,24.265.028-4.29s-.56,6.869-5.168,4.411a35.384,35.384,0,0,1-4.789-3.53s-2.268-1.134-3.781.63c0,0-1.513,2.268-.252,3.276l10.712,9.325a6.224,6.224,0,0,1,3.019,3.891l-.4,23.726c-.632,1.825-2.126,4.433-5.271,2.756a35.478,35.478,0,0,1-4.789-3.53s-2.268-1.134-3.781.63c0,0-1.513,2.268-.252,3.277l10.712,9.325a6.544,6.544,0,0,1,3.091,4.863l-.073,4.365c-1.079,3.625-5.157,3.626-5.157,3.626h-5.8a4.159,4.159,0,0,0,0,8.318H62.686a4.158,4.158,0,1,0,0-8.316Z" transform="translate(20.011 162.61)" fill="#404a46"/>
      <path id="路径_2" data-name="路径 2" d="M44.437.239a29.883,29.883,0,0,0-15.848,8.14c-5.661,5.581-5.287,10.5-5.287,10.5,0,4.36,2.831,5.992,4.788,6.39a24.434,24.434,0,0,0,3.788,0,4.463,4.463,0,0,0,4.578-4.811S36.456,14,45.735,14c0,0,11.39-1.644,11.39,10.335V39.363s-.586,4.579,4.7,4.579a78.568,78.568,0,0,0,8.455,0c2.888-.4,7.186-2.282,7.186-8.474,0,0,.875-17-8.208-25.432C58.783.314,50.511-.591,44.437.239Z" transform="translate(20.489 163.137)" fill="#1c9941"/>
      <path id="路径_3" data-name="路径 3" d="M26.207,41.027h4.284a4.235,4.235,0,0,0,3.2-4.226c0-1.877-5.216-7.435-16.42-6.1-4.532.54-13.693,4.318-15.2,14.676-.726,4.975,1.683,14.265,10,17.578,0,0,9.724.127,14.262,0A2.3,2.3,0,0,0,28.1,60.56a2.79,2.79,0,0,0-1.89-2.646c-1.682-.439-4.79-1.89-4.915-7.939V47.958S21.165,42.413,26.207,41.027Z" transform="translate(20.382 162.472)" fill="#1c9941"/>
      <path id="路径_4" data-name="路径 4" d="M25.04,98.8c-1.737-.452-4.944-1.951-5.074-8.195V88.526s-.13-5.722,5.074-7.153h4.421a4.371,4.371,0,0,0,3.306-4.362c0-1.937-5.383-7.672-16.946-6.3C11.141,71.271,1.686,75.171.126,85.862-.623,91,1.864,100.585,10.45,104c0,0,10.036.13,14.719,0a2.367,2.367,0,0,0,1.82-2.471A2.879,2.879,0,0,0,25.04,98.8Z" transform="translate(19.711 162.764)" fill="#1c9941"/>
      <path id="路径_5" data-name="路径 5" d="M78.385,49.6c-11.563-1.376-16.946,4.36-16.946,6.3a4.371,4.371,0,0,0,3.306,4.362h4.421c5.2,1.43,5.074,7.153,5.074,7.153v2.081c-.131,6.245-3.338,7.743-5.074,8.195a2.88,2.88,0,0,0-1.95,2.731,2.367,2.367,0,0,0,1.82,2.471c4.683.13,14.719,0,14.719,0,8.586-3.42,11.073-13.008,10.325-18.143C92.518,54.053,83.063,50.153,78.385,49.6Z" transform="translate(20.028 162.947)" fill="#1c9941"/>
    </g>
    <path id="makedream" d="M41.565-5.4V-17.172q0-3.643-2.927-3.643h0a2.1,2.1,0,0,0-1.951,1.5,9.5,9.5,0,0,0-.65,3.773h0q0,3.447-.1,5.724a31.013,31.013,0,0,1-.423,4.1,13.146,13.146,0,0,1-.781,2.862A4.814,4.814,0,0,1,33.5-1.138a4.022,4.022,0,0,1-1.756.911A11.148,11.148,0,0,1,29.271,0h0A8.789,8.789,0,0,1,25.6-.65a4,4,0,0,1-1.984-1.821A6.517,6.517,0,0,1,23.027-5.4h0V-17.172q0-3.643-2.927-3.643h0a2.2,2.2,0,0,0-1.919,1.333A7.08,7.08,0,0,0,17.433-16h0V-6.96q0,3.9-1.626,5.431T10.082,0h0Q6.245,0,4.846-1.789t-1.4-5.887h0v-16a7.741,7.741,0,0,1,1.789-5.334,6.074,6.074,0,0,1,4.781-2.016h0q5.334,0,6.765,3.447h0a16.079,16.079,0,0,1,4.846-2.537,19.351,19.351,0,0,1,5.562-.716h0a7.272,7.272,0,0,1,6.96,4.163h0l.65-.52h0a20.339,20.339,0,0,1,12.294-3.643h0q4.618,0,6.635,3.513t2.016,11.774h0q0,3.447-.1,5.724a31.012,31.012,0,0,1-.423,4.1,11.85,11.85,0,0,1-.813,2.862,4.646,4.646,0,0,1-1.366,1.724,4.745,4.745,0,0,1-1.951.911,13.331,13.331,0,0,1-2.7.228h0a10.345,10.345,0,0,1-4-.65,4.3,4.3,0,0,1-2.179-1.821,5.966,5.966,0,0,1-.65-2.927ZM73.5.39h0a10.5,10.5,0,0,1-8.521-4.2Q61.6-8,61.6-15.286h0q0-7.415,3.35-11.806A10.316,10.316,0,0,1,73.5-31.483h0a15.01,15.01,0,0,1,9.757,3.708h0a5.961,5.961,0,0,1,5.659-3.252h0A8.666,8.666,0,0,1,94.383-29.5q1.951,1.529,1.951,5.627h0V-6.96q0,3.9-1.626,5.431T88.984,0h0q-4.293,0-5.659-2.407h0A17.193,17.193,0,0,1,73.5.39ZM82.35-9.367V-21.531a3.267,3.267,0,0,0-2.862-1.886h0q-1.691,0-2.732,2.472a14.473,14.473,0,0,0-1.041,5.659h0a13.762,13.762,0,0,0,.976,5.334q.976,2.342,2.732,2.342h0A3.338,3.338,0,0,0,82.35-9.367Zm36.752.13h-2.342a11.16,11.16,0,0,1-1.951,6.31A5.985,5.985,0,0,1,109.6,0h0q-3.643,0-5.366-2.049T102.514-9.3h0V-36.036a9.68,9.68,0,0,1,.911-4.521A5.4,5.4,0,0,1,105.8-43a9.98,9.98,0,0,1,3.805-.846h0q4.033,0,5.4,2.7t1.366,9.334h0a61.626,61.626,0,0,1-.585,9.042h0q.455,1.431,2.927,1.431h0a2.624,2.624,0,0,0,2.114-.683,4.736,4.736,0,0,0,.553-2.764h0q0-3.057,1.594-4.423t5.431-1.366h0q4.033,0,5.431,1.464t1.4,5.3h0a8.055,8.055,0,0,1-2.407,6.245,7.782,7.782,0,0,1-5.4,2.212h0a8.585,8.585,0,0,1,5.431,1.854,6.621,6.621,0,0,1,2.374,5.562h0q0,4.944-1.333,6.44T128.4,0h0q-3.838,0-5.431-1.4a5.547,5.547,0,0,1-1.594-4.391h0a7.266,7.266,0,0,0-.26-2.244,1.667,1.667,0,0,0-.683-.976A2.946,2.946,0,0,0,119.1-9.237ZM157.284.39h0q-7.936,0-13.107-4.1A13.505,13.505,0,0,1,139.005-14.9h0q0-7.676,5.106-12.131t13.172-4.456h0q7.611,0,11.156,2.7a8.777,8.777,0,0,1,3.545,7.383h0a6.726,6.726,0,0,1-.228,1.756,6.508,6.508,0,0,1-.716,1.659,5.977,5.977,0,0,1-1.3,1.5,10.606,10.606,0,0,1-1.854,1.236,9.18,9.18,0,0,1-2.472.846,15.242,15.242,0,0,1-3.057.293h0l-9.172.065a6.164,6.164,0,0,0,2.342,3.285,7.227,7.227,0,0,0,4.293,1.2h0a24.058,24.058,0,0,0,5.724-.716h0a14.808,14.808,0,0,0,2.7-1.041,5.73,5.73,0,0,1,2.114-.716h0a2.264,2.264,0,0,1,1.724.65,2.268,2.268,0,0,1,.618,1.626h0a5.624,5.624,0,0,1-1.041,2.83,15.838,15.838,0,0,1-2.895,3.317,15.745,15.745,0,0,1-4.911,2.83A18.213,18.213,0,0,1,157.284.39Zm-4.423-18.6h0q4.488-.065,4.879-.065h0a1.529,1.529,0,0,0,1.431-1.171h0a6.734,6.734,0,0,0,.325-2.342h0q0-4.1-2.472-4.1h0a2.464,2.464,0,0,0-1.789.976,8.418,8.418,0,0,0-1.529,2.764A15.618,15.618,0,0,0,152.86-18.213Zm59.908-19.124v27.58q0,5.269-1.756,7.513A6.431,6.431,0,0,1,205.614,0h0q-4.163,0-5.724-2.6h0A16.96,16.96,0,0,1,189.677.455h0a10.44,10.44,0,0,1-8.456-4.2q-3.382-4.2-3.382-11.481h0q0-7.415,3.317-11.806a10.231,10.231,0,0,1,8.521-4.391h0a14.615,14.615,0,0,1,8.781,2.992h0v-8.326q0-3.968,1.951-5.887a7.1,7.1,0,0,1,5.2-1.919h0a8.477,8.477,0,0,1,5.366,1.431q1.789,1.431,1.789,5.789Zm-14.18,27.97h0l-.065-12.164a3.277,3.277,0,0,0-2.862-1.821h0a2.462,2.462,0,0,0-1.984,1.236,9,9,0,0,0-1.333,3.057,15.771,15.771,0,0,0-.455,3.838h0a13.762,13.762,0,0,0,.976,5.334q.976,2.342,2.732,2.342h0a3.309,3.309,0,0,0,.65-.065,3.785,3.785,0,0,0,.585-.163,2.914,2.914,0,0,0,.52-.26,2.556,2.556,0,0,0,.455-.358,4.25,4.25,0,0,0,.39-.455Zm34.15-10.668V-6.96q0,3.9-1.626,5.431T225.323,0h0q-3.838,0-5.2-1.789t-1.366-5.887h0v-16a9,9,0,0,1,.781-3.87,5.84,5.84,0,0,1,2.277-2.569,6.622,6.622,0,0,1,3.513-.911h0q4.944,0,6.5,2.862h0a12.17,12.17,0,0,1,7.285-2.862h0q6.83,0,6.83,6.5h0a6,6,0,0,1-1.5,4.228,5.057,5.057,0,0,1-3.9,1.626h0a4.1,4.1,0,0,1-2.309-.585q-.878-.585-1.626-1.171a2.719,2.719,0,0,0-1.724-.585h0a2.49,2.49,0,0,0-2.147.976ZM266.042.39h0q-7.936,0-13.107-4.1A13.505,13.505,0,0,1,247.764-14.9h0q0-7.676,5.106-12.131t13.172-4.456h0q7.611,0,11.156,2.7a8.777,8.777,0,0,1,3.545,7.383h0a6.727,6.727,0,0,1-.228,1.756,6.51,6.51,0,0,1-.716,1.659,5.978,5.978,0,0,1-1.3,1.5,10.606,10.606,0,0,1-1.854,1.236,9.18,9.18,0,0,1-2.472.846,15.242,15.242,0,0,1-3.057.293h0l-9.172.065a6.164,6.164,0,0,0,2.342,3.285,7.227,7.227,0,0,0,4.293,1.2h0a24.059,24.059,0,0,0,5.724-.716h0a14.808,14.808,0,0,0,2.7-1.041,5.73,5.73,0,0,1,2.114-.716h0a2.264,2.264,0,0,1,1.724.65,2.268,2.268,0,0,1,.618,1.626h0a5.623,5.623,0,0,1-1.041,2.83,15.839,15.839,0,0,1-2.895,3.317,15.746,15.746,0,0,1-4.911,2.83A18.213,18.213,0,0,1,266.042.39Zm-4.423-18.6h0q4.488-.065,4.879-.065h0a1.528,1.528,0,0,0,1.431-1.171h0a6.733,6.733,0,0,0,.325-2.342h0q0-4.1-2.472-4.1h0a2.464,2.464,0,0,0-1.789.976,8.417,8.417,0,0,0-1.529,2.764A15.618,15.618,0,0,0,261.619-18.213ZM298.5.39h0a10.5,10.5,0,0,1-8.521-4.2Q286.6-8,286.6-15.286h0q0-7.415,3.35-11.806a10.316,10.316,0,0,1,8.554-4.391h0a15.01,15.01,0,0,1,9.757,3.708h0a5.961,5.961,0,0,1,5.659-3.252h0a8.666,8.666,0,0,1,5.464,1.529q1.951,1.529,1.951,5.627h0V-6.96q0,3.9-1.626,5.431T313.982,0h0q-4.293,0-5.659-2.407h0A17.193,17.193,0,0,1,298.5.39Zm8.846-9.757V-21.531a3.267,3.267,0,0,0-2.862-1.886h0q-1.691,0-2.732,2.472a14.473,14.473,0,0,0-1.041,5.659h0a13.762,13.762,0,0,0,.976,5.334q.976,2.342,2.732,2.342h0a3.338,3.338,0,0,0,2.927-1.756ZM366.02-5.4V-17.172q0-3.643-2.927-3.643h0a2.1,2.1,0,0,0-1.951,1.5,9.5,9.5,0,0,0-.65,3.773h0q0,3.447-.1,5.724a31.015,31.015,0,0,1-.423,4.1,13.144,13.144,0,0,1-.781,2.862,4.815,4.815,0,0,1-1.236,1.724,4.022,4.022,0,0,1-1.756.911A11.148,11.148,0,0,1,353.726,0h0a8.789,8.789,0,0,1-3.675-.65,4,4,0,0,1-1.984-1.821,6.517,6.517,0,0,1-.585-2.927h0V-17.172q0-3.643-2.927-3.643h0a2.2,2.2,0,0,0-1.919,1.333,7.08,7.08,0,0,0-.748,3.48h0V-6.96q0,3.9-1.626,5.431T334.537,0h0Q330.7,0,329.3-1.789t-1.4-5.887h0v-16a7.741,7.741,0,0,1,1.789-5.334,6.074,6.074,0,0,1,4.781-2.016h0q5.334,0,6.765,3.447h0a16.08,16.08,0,0,1,4.846-2.537,19.351,19.351,0,0,1,5.561-.716h0a7.272,7.272,0,0,1,6.96,4.163h0l.65-.52h0a20.339,20.339,0,0,1,12.294-3.643h0q4.618,0,6.635,3.513T380.2-15.546h0q0,3.447-.1,5.724a31.009,31.009,0,0,1-.423,4.1,11.849,11.849,0,0,1-.813,2.862A4.645,4.645,0,0,1,377.5-1.138a4.744,4.744,0,0,1-1.951.911,13.33,13.33,0,0,1-2.7.228h0a10.345,10.345,0,0,1-4-.65,4.3,4.3,0,0,1-2.179-1.821,5.966,5.966,0,0,1-.65-2.927Z" transform="translate(131.798 278.051)" fill="#404a46"/>
  </g>
</svg>
