<svg xmlns="http://www.w3.org/2000/svg" width="94.523" height="120.579" viewBox="0 0 94.523 120.579">
  <g id="组_1" data-name="组 1" transform="translate(-19.711 -163.137)">
    <path id="路径_1" data-name="路径 1" d="M62.686,112.79H56.624c-.782-.014-4.651-.348-4.651-5.671v1.488l-.412-24.645a6.729,6.729,0,0,1,3.944-4.693l10.712-9.326c1.26-1.008-.252-3.277-.252-3.277-1.511-1.764-3.781-.63-3.781-.63a35.479,35.479,0,0,1-4.789,3.53c-4.231,2.257-5.9-3.242-6.144-4.155l-.664-39.638c0-2.958-.886-5.356-3.844-5.356s-3.844,2.4-3.844,5.356l-.406,24.265.028-4.29s-.56,6.869-5.168,4.411a35.384,35.384,0,0,1-4.789-3.53s-2.268-1.134-3.781.63c0,0-1.513,2.268-.252,3.276l10.712,9.325a6.224,6.224,0,0,1,3.019,3.891l-.4,23.726c-.632,1.825-2.126,4.433-5.271,2.756a35.478,35.478,0,0,1-4.789-3.53s-2.268-1.134-3.781.63c0,0-1.513,2.268-.252,3.277l10.712,9.325a6.544,6.544,0,0,1,3.091,4.863l-.073,4.365c-1.079,3.625-5.157,3.626-5.157,3.626h-5.8a4.159,4.159,0,0,0,0,8.318H62.686a4.158,4.158,0,1,0,0-8.316Z" transform="translate(20.011 162.61)" fill="#404a46"/>
    <path id="路径_2" data-name="路径 2" d="M44.437.239a29.883,29.883,0,0,0-15.848,8.14c-5.661,5.581-5.287,10.5-5.287,10.5,0,4.36,2.831,5.992,4.788,6.39a24.434,24.434,0,0,0,3.788,0,4.463,4.463,0,0,0,4.578-4.811S36.456,14,45.735,14c0,0,11.39-1.644,11.39,10.335V39.363s-.586,4.579,4.7,4.579a78.568,78.568,0,0,0,8.455,0c2.888-.4,7.186-2.282,7.186-8.474,0,0,.875-17-8.208-25.432C58.783.314,50.511-.591,44.437.239Z" transform="translate(20.489 163.137)" fill="#1c9941"/>
    <path id="路径_3" data-name="路径 3" d="M26.207,41.027h4.284a4.235,4.235,0,0,0,3.2-4.226c0-1.877-5.216-7.435-16.42-6.1-4.532.54-13.693,4.318-15.2,14.676-.726,4.975,1.683,14.265,10,17.578,0,0,9.724.127,14.262,0A2.3,2.3,0,0,0,28.1,60.56a2.79,2.79,0,0,0-1.89-2.646c-1.682-.439-4.79-1.89-4.915-7.939V47.958S21.165,42.413,26.207,41.027Z" transform="translate(20.382 162.472)" fill="#1c9941"/>
    <path id="路径_4" data-name="路径 4" d="M25.04,98.8c-1.737-.452-4.944-1.951-5.074-8.195V88.526s-.13-5.722,5.074-7.153h4.421a4.371,4.371,0,0,0,3.306-4.362c0-1.937-5.383-7.672-16.946-6.3C11.141,71.271,1.686,75.171.126,85.862-.623,91,1.864,100.585,10.45,104c0,0,10.036.13,14.719,0a2.367,2.367,0,0,0,1.82-2.471A2.879,2.879,0,0,0,25.04,98.8Z" transform="translate(19.711 162.764)" fill="#1c9941"/>
    <path id="路径_5" data-name="路径 5" d="M78.385,49.6c-11.563-1.376-16.946,4.36-16.946,6.3a4.371,4.371,0,0,0,3.306,4.362h4.421c5.2,1.43,5.074,7.153,5.074,7.153v2.081c-.131,6.245-3.338,7.743-5.074,8.195a2.88,2.88,0,0,0-1.95,2.731,2.367,2.367,0,0,0,1.82,2.471c4.683.13,14.719,0,14.719,0,8.586-3.42,11.073-13.008,10.325-18.143C92.518,54.053,83.063,50.153,78.385,49.6Z" transform="translate(20.028 162.947)" fill="#1c9941"/>
  </g>
</svg>
